#!OML:ASF X:\für Bonn\!DataBase\2005_08_10_Bjorn_Final\c3d\bjorn.ASF
:FULLY-SPECIFIED
:DEGREES
129
root 0.816901 15.7224 2.24502 -179.857 -0.562165 -181.506
lowerback 7.42125 1.69379 3.18709
upperback 6.15359 1.84769 0.0712917
thorax 2.3235 0.79052 -1.81585
lowerneck -20.5983 -1.77682 0.623868
upperneck 12.7292 -2.02268 -3.42294
head 7.22069 -1.28456 -1.47232
rclavicle 1.74931e-014 8.34896e-015
rhumerus 71.2012 4.54566 -51.2103
rradius 17.3084
rwrist 32.9929
rhand -12.0817 9.7289
rfingers 7.12502
rthumb 13.9782 -19.7812
lclavicle 1.74931e-014 8.34896e-015
lhumerus 75.4801 -8.1244 60.9671
lradius 12.397
lwrist -46.2377
lhand -23.4006 -9.66237
lfingers 7.12502
lthumb 3.0562 20.2955
rfemur 135.565 -166.44 -167.804
rtibia 84.9596
rfoot -31.7871 17.0529
rtoes -21.1507
lfemur -44.356 6.96344 -17.8662
ltibia 86.7143
lfoot -28.4054 -4.17838
ltoes -26.0788
130
root 0.820175 15.9403 2.22587 -179.748 -0.519259 -181.564
lowerback 6.57427 1.70562 3.09331
upperback 6.03951 1.87681 -0.00999381
thorax 2.67252 0.825889 -1.82749
lowerneck -20.0545 -1.73046 0.694588
upperneck 13.3583 -1.96793 -3.42083
head 7.33853 -1.2539 -1.47751
rclavicle -7.35503e-015 -1.15295e-014
rhumerus 70.9549 4.62099 -52.4706
rradius 17.1384
rwrist 33.6359
rhand -12.1624 9.88148
rfingers 7.12502
rthumb 13.9005 -19.6339
lclavicle -7.35503e-015 -1.15295e-014
lhumerus 75.264 -8.62447 60.441
lradius 12.4596
lwrist -45.3973
lhand -23.6647 -9.59319
lfingers 7.12502
lthumb 2.80117 20.3682
rfemur 137.213 -166.815 -167.625
rtibia 82.0763
rfoot -32.1149 16.2677
rtoes -20.589
lfemur -42.7345 6.54789 -18.0135
ltibia 83.8702
lfoot -28.3781 -3.63202
ltoes -26.0029
131
root 0.822874 16.1586 2.20774 -179.66 -0.477483 -181.547
lowerback 5.73963 1.70711 3.08723
upperback 5.95727 1.88954 -0.0676162
thorax 3.05223 0.853283 -1.86252
lowerneck -19.5887 -1.67957 0.721367
upperneck 14.0455 -1.90545 -3.39339
head 7.48902 -1.22315 -1.46887
rclavicle -1.91827e-014 1.19271e-015
rhumerus 70.7044 4.62061 -54.1164
rradius 16.9655
rwrist 34.5962
rhand -12.2215 10.0503
rfingers 7.12502
rthumb 13.8436 -19.469
lclavicle -1.91827e-014 1.19271e-015
lhumerus 74.9863 -9.07746 60.0948
lradius 12.5597
lwrist -44.7033
lhand -23.8284 -9.65801
lfingers 7.12502
lthumb 2.64307 20.3054
rfemur 138.877 -167.173 -167.387
rtibia 79.1818
rfoot -32.2966 15.5478
rtoes -20.0268
lfemur -41.0586 6.19257 -18.08
ltibia 80.9478
lfoot -28.3659 -3.08381
ltoes -26.0838
132
root 0.826598 16.3744 2.19078 -179.564 -0.426574 -181.512
lowerback 4.90262 1.72217 3.09515
upperback 5.8805 1.91886 -0.121786
thorax 3.44245 0.888684 -1.90156
lowerneck -19.0086 -1.62321 0.77503
upperneck 14.6169 -1.85334 -3.35894
head 7.5809 -1.19642 -1.46075
rclavicle -1.98785e-015 5.56597e-015
rhumerus 70.4122 4.56491 -55.971
rradius 16.7899
rwrist 35.603
rhand -12.2646 10.2299
rfingers 7.12502
rthumb 13.802 -19.2922
lclavicle -1.98785e-015 5.56597e-015
lhumerus 74.6639 -9.55163 59.829
lradius 12.7345
lwrist -44.1477
lhand -23.7908 -9.74987
lfingers 7.12502
lthumb 2.67938 20.213
rfemur 140.497 -167.499 -167.134
rtibia 76.3143
rfoot -32.2932 14.8418
rtoes -19.775
lfemur -39.3887 5.88826 -18.1283
ltibia 77.9782
lfoot -28.4039 -2.41319
ltoes -26.3372
133
root 0.830361 16.5916 2.17261 -179.477 -0.377214 -181.419
lowerback 4.07142 1.73783 3.16211
upperback 5.81707 1.94604 -0.158038
thorax 3.84729 0.923815 -1.95441
lowerneck -18.4506 -1.57129 0.81151
upperneck 15.2174 -1.81343 -3.30212
head 7.68563 -1.17727 -1.44516
rclavicle -1.81888e-014 6.75868e-015
rhumerus 70.0754 4.50859 -57.7304
rradius 16.6761
rwrist 36.4588
rhand -12.2892 10.3854
rfingers 7.12502
rthumb 13.7783 -19.1383
lclavicle -1.81888e-014 6.75868e-015
lhumerus 74.2986 -9.99125 59.7464
lradius 12.9081
lwrist -43.8726
lhand -23.6721 -9.93582
lfingers 7.12502
lthumb 2.79407 20.0256
rfemur 142.091 -167.805 -166.845
rtibia 73.4824
rfoot -32.0512 14.2114
rtoes -19.5534
lfemur -37.6891 5.60973 -18.1034
ltibia 74.9564
lfoot -28.4597 -1.82261
ltoes -26.6614
134
root 0.833276 16.807 2.15472 -179.36 -0.336771 -181.347
lowerback 3.23147 1.74474 3.20249
upperback 5.73226 1.96152 -0.179309
thorax 4.23409 0.951868 -1.97642
lowerneck -17.8369 -1.51596 0.756032
upperneck 15.7972 -1.76274 -3.19634
head 7.77508 -1.15639 -1.39664
rclavicle 1.09332e-014 1.31198e-014
rhumerus 69.7023 4.46779 -59.6095
rradius 16.5542
rwrist 37.3527
rhand -12.3482 10.5593
rfingers 7.12502
rthumb 13.7214 -18.9683
lclavicle 1.09332e-014 1.31198e-014
lhumerus 73.8629 -10.3853 59.9202
lradius 13.0566
lwrist -43.8835
lhand -23.3711 -10.2104
lfingers 7.12502
lthumb 3.08468 19.7471
rfemur 143.615 -168.051 -166.595
rtibia 70.706
rfoot -31.8309 13.5233
rtoes -20.0741
lfemur -36.0314 5.3475 -18.0908
ltibia 71.9336
lfoot -28.519 -1.38828
ltoes -26.5817
135
root 0.837485 17.021 2.13579 -179.274 -0.296918 -181.274
lowerback 2.41152 1.76296 3.25651
upperback 5.67481 1.98768 -0.225445
thorax 4.64261 0.985089 -2.03148
lowerneck -17.2375 -1.44849 0.811173
upperneck 16.3946 -1.72408 -3.13357
head 7.87025 -1.14187 -1.38282
rclavicle -1.88845e-014 1.03368e-014
rhumerus 69.2748 4.38866 -61.4342
rradius 16.4681
rwrist 38.0859
rhand -12.4054 10.7188
rfingers 7.12502
rthumb 13.6664 -18.8126
lclavicle -1.88845e-014 1.03368e-014
lhumerus 73.6147 -10.8699 59.5497
lradius 13.0861
lwrist -43.6208
lhand -23.1031 -10.4423
lfingers 7.12502
lthumb 3.34357 19.5113
rfemur 145.163 -168.302 -166.361
rtibia 67.9583
rfoot -31.6144 12.7942
rtoes -21.1819
lfemur -34.3514 5.10147 -18.0527
ltibia 68.9227
lfoot -28.5259 -1.1537
ltoes -26.1276
136
root 0.841439 17.2287 2.11635 -179.205 -0.256175 -181.237
lowerback 1.61194 1.78052 3.26817
upperback 5.62997 2.01058 -0.273761
thorax 5.0528 1.01386 -2.06521
lowerneck -16.5991 -1.37548 0.836902
upperneck 16.9236 -1.68306 -3.03838
head 7.93591 -1.12628 -1.35216
rclavicle 6.4605e-015 -7.95139e-016
rhumerus 68.8145 4.4152 -62.7984
rradius 16.4422
rwrist 38.3942
rhand -12.5918 10.7999
rfingers 7.12502
rthumb 13.4866 -18.7434
lclavicle 6.4605e-015 -7.95139e-016
lhumerus 73.4264 -11.3349 59.1585
lradius 13.0158
lwrist -43.4779
lhand -22.8074 -10.6743
lfingers 7.12502
lthumb 3.6291 19.2746
rfemur 146.704 -168.512 -166.204
rtibia 65.262
rfoot -31.4455 12.074
rtoes -22.8691
lfemur -32.6691 4.88876 -18.0521
ltibia 65.95
lfoot -28.5173 -0.876869
ltoes -25.9873
137
root 0.845481 17.4296 2.09704 -179.128 -0.205676 -181.2
lowerback 0.810414 1.80754 3.2823
upperback 5.58517 2.04507 -0.318068
thorax 5.46669 1.04801 -2.09525
lowerneck -15.9621 -1.31733 0.803869
upperneck 17.4727 -1.66778 -2.88368
head 8.00855 -1.12382 -1.29585
rclavicle -9.14409e-015 -1.39149e-014
rhumerus 68.3307 4.47931 -63.901
rradius 16.4218
rwrist 38.4244
rhand -12.7803 10.8435
rfingers 7.12502
rthumb 13.3049 -18.7118
lclavicle -9.14409e-015 -1.39149e-014
lhumerus 73.3514 -11.845 58.4617
lradius 12.8665
lwrist -43.2323
lhand -22.6307 -10.8425
lfingers 7.12502
lthumb 3.79976 19.1033
rfemur 148.198 -168.749 -166.072
rtibia 62.6123
rfoot -31.2297 11.5344
rtoes -24.4017
lfemur -31.0418 4.71979 -18.0427
ltibia 63.0232
lfoot -28.4103 -0.712223
ltoes -25.5643
138
root 0.849772 17.6253 2.07792 -179.049 -0.163802 -181.202
lowerback 0.00991875 1.82586 3.23449
upperback 5.54401 2.06836 -0.356598
thorax 5.88188 1.07281 -2.08472
lowerneck -15.3103 -1.23994 0.798423
upperneck 18.0288 -1.63536 -2.76576
head 8.08014 -1.1186 -1.25487
rclavicle 1.50082e-014 -5.1684e-015
rhumerus 67.8661 4.60706 -64.7518
rradius 16.4177
rwrist 38.3437
rhand -12.9649 10.8592
rfingers 7.12502
rthumb 13.127 -18.7076
lclavicle 1.50082e-014 -5.1684e-015
lhumerus 73.2939 -12.3344 57.8177
lradius 12.6362
lwrist -43.1045
lhand -22.5105 -10.9256
lfingers 7.12502
lthumb 3.91584 19.0181
rfemur 149.644 -168.979 -166.008
rtibia 60.0233
rfoot -30.9261 11.2531
rtoes -25.4043
lfemur -29.4622 4.57331 -18.0689
ltibia 60.1456
lfoot -28.2368 -0.579439
ltoes -24.8491
139
root 0.854315 17.8125 2.0592 -178.961 -0.123157 -181.185
lowerback -0.82408 1.84949 3.20465
upperback 5.52278 2.09489 -0.383852
thorax 6.34003 1.09935 -2.07075
lowerneck -14.6479 -1.17062 0.781599
upperneck 18.5466 -1.61422 -2.66787
head 8.13624 -1.12361 -1.21971
rclavicle -3.12589e-014 3.18055e-015
rhumerus 67.4723 4.83291 -65.0242
rradius 16.4179
rwrist 37.7913
rhand -13.1375 10.8302
rfingers 7.12502
rthumb 12.9607 -18.7473
lclavicle -3.12589e-014 3.18055e-015
lhumerus 73.313 -12.8558 56.9565
lradius 12.3769
lwrist -42.9149
lhand -22.5126 -10.9532
lfingers 7.12502
lthumb 3.91375 18.9906
rfemur 151.023 -169.233 -165.938
rtibia 57.503
rfoot -30.6266 11.0821
rtoes -26.0962
lfemur -27.9414 4.46628 -18.0654
ltibia 57.3236
lfoot -27.9824 -0.605603
ltoes -23.7636
140
root 0.859324 17.9879 2.04156 -178.862 -0.0818452 -181.187
lowerback -1.64663 1.87754 3.15666
upperback 5.49062 2.12985 -0.414196
thorax 6.78176 1.12856 -2.04923
lowerneck -13.9327 -1.10249 0.706376
upperneck 19.0477 -1.60544 -2.49712
head 8.17778 -1.13412 -1.1516
rclavicle -2.98177e-015 -5.96354e-015
rhumerus 67.1061 5.09246 -64.9982
rradius 16.4116
rwrist 37.2149
rhand -13.2493 10.7128
rfingers 7.12502
rthumb 12.8528 -18.8715
lclavicle -2.98177e-015 -5.96354e-015
lhumerus 73.2888 -13.3895 56.2028
lradius 12.1208
lwrist -42.8404
lhand -22.6002 -11.0084
lfingers 7.12502
lthumb 3.82919 18.9369
rfemur 152.33 -169.459 -165.898
rtibia 55.0706
rfoot -30.4243 10.9772
rtoes -26.7476
lfemur -26.4909 4.40381 -18.079
ltibia 54.5815
lfoot -27.6793 -0.601549
ltoes -22.9669
141
root 0.866128 18.1568 2.02453 -178.743 -0.0198553 -181.187
lowerback -2.48438 1.90949 3.07863
upperback 5.45059 2.17198 -0.43276
thorax 7.22428 1.15882 -1.99697
lowerneck -13.1696 -1.02319 0.671988
upperneck 19.544 -1.59348 -2.367
head 8.20788 -1.14816 -1.10343
rclavicle -1.37658e-014 5.96354e-015
rhumerus 66.7912 5.39459 -64.721
rradius 16.3875
rwrist 36.6161
rhand -13.2946 10.5977
rfingers 7.12502
rthumb 12.8092 -18.9894
lclavicle -1.37658e-014 5.96354e-015
lhumerus 73.2375 -13.9501 55.4362
lradius 11.8923
lwrist -42.7082
lhand -22.7043 -10.9404
lfingers 7.12502
lthumb 3.72866 19.0067
rfemur 153.557 -169.685 -165.842
rtibia 52.7367
rfoot -30.3617 11.0024
rtoes -26.9313
lfemur -25.1109 4.42104 -18.0724
ltibia 51.9197
lfoot -27.3152 -0.742468
ltoes -21.8968
